<svg xmlns="http://www.w3.org/2000/svg" viewBox="0 0 400 260" width="100%" height="100%">
  <rect width="400" height="260" fill="#e5e7eb"/>
  <rect x="2" y="2" width="396" height="256" fill="none" stroke="#0000d6" stroke-width="2"/>
  <line x1="2" y1="2" x2="398" y2="2" stroke="#ef4444" stroke-width="3"/>
  <polygon points="125,152 145,178 170,192 230,192 255,178 275,152" fill="#d1d5db" stroke="#0000d6" stroke-width="2.5" stroke-linejoin="round"/>
  <line x1="125" y1="152" x2="275" y2="152" stroke="#0000d6" stroke-width="3"/>
  <circle cx="125" cy="152" r="2.5" fill="#854d0e"/>
  <circle cx="275" cy="152" r="2.5" fill="#854d0e"/>
  <line x1="135" y1="133" x2="175" y2="133" stroke="#0000d6" stroke-width="3.5" stroke-linecap="square"/>
  <line x1="134" y1="133" x2="136" y2="133" stroke="#ef4444" stroke-width="3.5"/>
  <line x1="174" y1="133" x2="176" y2="133" stroke="#ef4444" stroke-width="3.5"/>
  <line x1="180" y1="122" x2="220" y2="122" stroke="#0000d6" stroke-width="3.5" stroke-linecap="square"/>
  <line x1="179" y1="122" x2="181" y2="122" stroke="#ef4444" stroke-width="3.5"/>
  <line x1="219" y1="122" x2="221" y2="122" stroke="#ef4444" stroke-width="3.5"/>
  <line x1="225" y1="133" x2="265" y2="133" stroke="#0000d6" stroke-width="3.5" stroke-linecap="square"/>
  <line x1="224" y1="133" x2="226" y2="133" stroke="#ef4444" stroke-width="3.5"/>
  <line x1="264" y1="133" x2="266" y2="133" stroke="#ef4444" stroke-width="3.5"/>
</svg>
